<svg width="128" height="128" viewBox="0 0 128 128" fill="none" xmlns="http://www.w3.org/2000/svg">
<path d="M64 64C71.0725 64 77.8552 61.1905 82.8562 56.1895C87.8572 51.1886 90.6667 44.4058 90.6667 37.3334C90.6667 30.2609 87.8572 23.4781 82.8562 18.4772C77.8552 13.4762 71.0725 10.6667 64 10.6667C56.9276 10.6667 50.1448 13.4762 45.1438 18.4772C40.1429 23.4781 37.3334 30.2609 37.3334 37.3334C37.3334 44.4058 40.1429 51.1886 45.1438 56.1895C50.1448 61.1905 56.9276 64 64 64V64ZM64 77.3334C37.28 77.3334 15.52 95.2534 15.52 117.333C15.52 118.827 16.6934 120 18.1867 120H109.813C111.307 120 112.48 118.827 112.48 117.333C112.48 95.2534 90.72 77.3334 64 77.3334Z" fill="#F4F4F4"/>
<path d="M64 64C71.0725 64 77.8552 61.1905 82.8562 56.1895C87.8572 51.1886 90.6667 44.4058 90.6667 37.3334C90.6667 30.2609 87.8572 23.4781 82.8562 18.4772C77.8552 13.4762 71.0725 10.6667 64 10.6667C56.9276 10.6667 50.1448 13.4762 45.1438 18.4772C40.1429 23.4781 37.3334 30.2609 37.3334 37.3334C37.3334 44.4058 40.1429 51.1886 45.1438 56.1895C50.1448 61.1905 56.9276 64 64 64V64ZM64 77.3334C37.28 77.3334 15.52 95.2534 15.52 117.333C15.52 118.827 16.6934 120 18.1867 120H109.813C111.307 120 112.48 118.827 112.48 117.333C112.48 95.2534 90.72 77.3334 64 77.3334Z" fill="black" fill-opacity="0.4"/>
</svg>
